

<svg id="Layer_1" fill= "#0b7a75" data-name="Layer 1" xmlns="http://www.w3.org/2000/svg" viewBox="0 0 1080 1080"><defs><style>.cls-1{stroke:#0b7a75;stroke-miterlimit:10;}</style></defs><title>zestos standard black</title><path d="M436.66,533.64h0L559.49,351c23.89-35.54,70.85-57.77,122-57.77h0L567.29,471.15C542.46,509.83,491.8,534.07,436.66,533.64Z"/><path d="M437.66,293.21h90.91a0,0,0,0,1,0,0v0a90.91,90.91,0,0,1-90.91,90.91h0a0,0,0,0,1,0,0V293.21A0,0,0,0,1,437.66,293.21Z"/><path d="M590.58,442.72h90.91a0,0,0,0,1,0,0v0a90.91,90.91,0,0,1-90.91,90.91h0a0,0,0,0,1,0,0V442.72A0,0,0,0,1,590.58,442.72Z" transform="translate(1272.07 976.36) rotate(180)"/><path d="M465.69,716a6.19,6.19,0,0,1-2.62,3.22,10.71,10.71,0,0,1-4.82.86h-.11a11.16,11.16,0,0,1-4.82-.72,2.76,2.76,0,0,1-1.32-2.68v-21a3.29,3.29,0,0,1,.42-2,4.23,4.23,0,0,1,2.06-.86,4.15,4.15,0,0,0,1-.28.82.82,0,0,0,.31-.87.64.64,0,0,0-.54-.63,7.57,7.57,0,0,0-1,.05,42,42,0,0,1-8.16,0,3.72,3.72,0,0,0-1.22,0c-.15.06-.25.27-.3.61s.19.84.8,1.06a3.54,3.54,0,0,1,2.06,1.45,5.13,5.13,0,0,1,.44,2.44v21.63a2.24,2.24,0,0,1-2.29,2.46c-.67.06-1,.3-1,.7s.05.62.16.72.39.13.85.1q4.55-.22,10.36-.23,5.46,0,9.16.19a3.85,3.85,0,0,0,1.21-.09h0l.32-6.82C466.23,715.2,465.91,715.43,465.69,716Z"/><path d="M494.11,691.75c0,.39-.42.71-1.27,1-1.89.56-2.83,1.29-2.83,2.2v22.8c0,1.47.87,2.36,2.6,2.68.86.15,1.29.46,1.29.91s-.08.63-.22.73a2.85,2.85,0,0,1-1.21.09,87.72,87.72,0,0,0-9.56,0c-.58,0-.92-.06-1-.33a1.93,1.93,0,0,1,0-.49c0-.31.35-.55,1.06-.7a11.82,11.82,0,0,0,2.27-.64,2.1,2.1,0,0,0,.75-1.92v-23c0-1.3-.87-2.09-2.62-2.39-.74-.13-1.11-.35-1.11-.68s.06-.73.18-.83a1.23,1.23,0,0,1,.83-.08,42.18,42.18,0,0,0,9.45-.1,4.38,4.38,0,0,1,1.07-.07C494,691,494.11,691.26,494.11,691.75Z"/><path d="M544.07,691.84a.92.92,0,0,1-.26.73,4.36,4.36,0,0,1-1.26.51c-.82.25-1.73,1.32-2.75,3.21a268.62,268.62,0,0,0-11.62,25.24,2.34,2.34,0,0,1-1.74,1.36l-.14.05c-.36,0-.66-.47-.91-1.41a89.59,89.59,0,0,0-4.66-11.34q-3.9-8.41-7.43-14.72a4.85,4.85,0,0,0-3.31-2.62c-.76-.16-1.15-.39-1.15-.68,0-.72.34-1,1-1a38.67,38.67,0,0,0,10-.43,4.1,4.1,0,0,1,1.06-.09c.25.08.37.34.37.8s-.4.68-1.19,1c-1.57.58-2.35,1.19-2.35,1.83a2.38,2.38,0,0,0,.28,1q2.4,4.68,9.17,20.36c.15.35.3.52.44.52s.27-.17.42-.52q1.95-4.5,8.65-19.35a2.68,2.68,0,0,0,.24-1c0-1-1-1.8-2.84-2.46-.7-.25-1-.61-1-1.1s.57-.76,1.55-.63a34.47,34.47,0,0,0,8.34.09C543.72,691,544.07,691.26,544.07,691.84Z"/><path d="M571.06,691.75c0,.39-.42.71-1.27,1-1.89.56-2.83,1.29-2.83,2.2v22.8c0,1.47.87,2.36,2.6,2.68.86.15,1.29.46,1.29.91s-.08.63-.22.73a2.85,2.85,0,0,1-1.21.09,87.72,87.72,0,0,0-9.56,0c-.58,0-.92-.06-1-.33a1.93,1.93,0,0,1-.05-.49c0-.31.35-.55,1.06-.7a11.82,11.82,0,0,0,2.27-.64,2.1,2.1,0,0,0,.75-1.92v-23c0-1.3-.88-2.09-2.63-2.39-.73-.13-1.1-.35-1.1-.68s.06-.73.18-.83a1.23,1.23,0,0,1,.83-.08,42.18,42.18,0,0,0,9.45-.1,4.38,4.38,0,0,1,1.07-.07C570.93,691,571.06,691.26,571.06,691.75Z"/><path d="M622.57,691.7c0,.39-.43.71-1.27,1q-2.81.8-2.81,3.26v16.85c0,3.55,0,6.4.14,8.58,0,.82-.17,1.29-.59,1.4-.7.17-1.29-.19-1.78-1.1q-1.17-2.22-9.19-11-6.71-7.29-13-13.61a.35.35,0,0,0-.42-.12q-.24.12-.24.54v19.22a3.41,3.41,0,0,0,3.12,3.68c.86.17,1.29.47,1.29.91,0,.59-.49.87-1.45.82a77,77,0,0,0-8.68,0c-.67,0-1-.23-1-.82,0-.33.33-.56,1-.7a4.53,4.53,0,0,0,2.42-1.15,3.92,3.92,0,0,0,.61-2.46V696.25a3.38,3.38,0,0,0-.56-2.09,6,6,0,0,0-2.09-1.36c-.77-.36-1.13-.73-1.1-1.1s.4-.59,1-.49a22,22,0,0,0,5.28.18,2.41,2.41,0,0,1,2.06.87L615,713.19q.39.45.54.45c.12,0,.19-.22.19-.64V696.06q0-3-3.12-3.52c-.74-.12-1.1-.34-1.1-.65,0-.66.33-.95,1-.87a39.39,39.39,0,0,0,8.58-.1,3.39,3.39,0,0,1,1.06,0C622.43,691,622.57,691.25,622.57,691.7Z"/><path d="M671,708.1c0,.5-.36.81-1.1.92a12.81,12.81,0,0,0-1.8.33,1.32,1.32,0,0,0-.85,1.36V718q0,1.38-3.61,3a22.7,22.7,0,0,1-9.11,1.75,17.7,17.7,0,0,1-12.26-4.38,14.64,14.64,0,0,1-5-11.41,15.37,15.37,0,0,1,5.13-11.82,17.09,17.09,0,0,1,12-4.54,28.2,28.2,0,0,1,9.11,1.29c1.85.62,2.81,1.25,2.89,1.87a45.43,45.43,0,0,1,.23,5.27c0,.52-.32.79-1,.82s-1.21-.18-1.38-.63a9.85,9.85,0,0,0-3.63-5,11.58,11.58,0,0,0-6.41-1.53q-5.62,0-8.78,3.44-3.27,3.6-3.26,10.27,0,6.45,3.75,10.38a12.27,12.27,0,0,0,9.35,3.85,14,14,0,0,0,5.46-1.06c1.61-.67,2.41-1.35,2.41-2v-4.87a3.67,3.67,0,0,0-.7-2.51,5.25,5.25,0,0,0-2.41-1.24c-.89-.27-1.32-.59-1.27-1s.17-.66.32-.75a2.18,2.18,0,0,1,1.13,0,42.15,42.15,0,0,0,9.71.1l.42,0C670.79,707.21,671,707.51,671,708.1Z"/><path class="cls-1" d="M401.6,570.32h0l-47.3,72.59a25.31,25.31,0,0,1-21.22,11.51h0l47.12-72.49A25.53,25.53,0,0,1,401.6,570.32Zm-65.18,0h39l-.37.62q-14.36.24-22.26,2.78t-11.32,7.67q-3.4,5.13-4.27,14.53h-.74Zm23,83.48q15.33-.49,23.55-3.09t12.31-8.23q4.08-5.62,6.31-16.63h.86l-1.73,28.57H359.05Z"/><path class="cls-1" d="M433.44,646.87q-9.35-8.77-9.34-23.62a32.33,32.33,0,0,1,4.64-17.38A29.25,29.25,0,0,1,439.87,595a31.26,31.26,0,0,1,13.54-3.65V592q-7.43.87-12.24,8.29T436.34,623q0,16.14,9.66,24.3a22.15,22.15,0,0,0,14.72,5,27.64,27.64,0,0,0,19.77-8.53l.13.62a26,26,0,0,1-11,8.35,36,36,0,0,1-14,2.9A31.3,31.3,0,0,1,433.44,646.87Zm12.67-28q8.17-.12,12.43-.37c2.85-.17,5.38-.39,7.61-.68s3.73-.85,4.51-1.67a6.54,6.54,0,0,0,1.61-2.72,17,17,0,0,0,.43-4.45q-.12-7.31-4-11.81A15.44,15.44,0,0,0,458.36,592v-.62q10.75.25,17.37,6.74a20.59,20.59,0,0,1,6.62,15.15,21.51,21.51,0,0,1-.74,6.43h-35.5Z"/><path class="cls-1" d="M518,640.07a6.59,6.59,0,0,0-4.33,1.61,4.83,4.83,0,0,0-1.6,3.71c0,2.31,1.27,4.43,3.83,6.37s6.1,3,10.63,3.27v.62q-11-.37-17.12-3.65t-6.13-8.34a6.66,6.66,0,0,1,2.35-5.26,8.24,8.24,0,0,1,5.57-2C514.46,636.36,516.72,637.6,518,640.07ZM526.74,592a17,17,0,0,0-9.15,3.28,8.54,8.54,0,0,0-3.46,7.36q.12,4.2,4.33,7.73a42.53,42.53,0,0,0,10.2,6.18q6,2.65,11.93,5.44a35.74,35.74,0,0,1,10.15,7,13.14,13.14,0,0,1,4.2,9.52,14.42,14.42,0,0,1-6,12.25q-6,4.44-17.25,4.94V655q14.1-2,14.1-11.75,0-4.08-4.21-7.48a47.08,47.08,0,0,0-10.2-6.12q-6-2.71-12-5.63a36.83,36.83,0,0,1-10.2-7.11,13,13,0,0,1-4.2-9.4,13.41,13.41,0,0,1,5.93-11.37q5.94-4.33,15.83-4.83ZM547,595.05q5.5,3.23,5.51,7.67a6.26,6.26,0,0,1-1.92,4.7,7.23,7.23,0,0,1-5.26,1.85c-3.54,0-5.73-1.31-6.55-3.95a5.69,5.69,0,0,0,3.89-1.55,4.36,4.36,0,0,0,1.3-3.52q0-2.85-3.34-5.38a15.82,15.82,0,0,0-8.65-2.91v-.62Q541.45,591.83,547,595.05Z"/><path class="cls-1" d="M618.5,647a18.87,18.87,0,0,1-7.48,6.24,23.53,23.53,0,0,1-10.57,2.41c-5.45,0-9.75-1.48-12.93-4.45s-4.76-7.71-4.76-14.22v-39.7h-9.15l1.11-1.61h8V580.21a19.21,19.21,0,0,0,11.75-4.7v20.16h22.26l-1.11,1.61H594.51v39.94q0,7.8,3.09,11.69a10,10,0,0,0,8.29,3.9q6.93,0,12.37-6.43Z"/><path class="cls-1" d="M663.89,592q-7.8.87-12.8,8.35t-5,23.06q0,15.35,5.19,23.19T663.89,655v.62q-11.62-.24-20.84-8.9t-9.22-23.38q0-14.72,9.16-23.25a30.8,30.8,0,0,1,20.9-8.78Zm26,8.16q9.15,8.53,9.15,23.25t-9.21,23.32q-9.22,8.71-20.72,9V655q7.42-.62,12.62-8.47t5.19-23.19q0-15.71-5-23.19T669.08,592v-.62A30.68,30.68,0,0,1,689.86,600.12Z"/><path class="cls-1" d="M734.87,640.07a6.59,6.59,0,0,0-4.33,1.61,4.84,4.84,0,0,0-1.61,3.71q0,3.47,3.84,6.37c2.55,1.93,6.1,3,10.63,3.27v.62q-11-.37-17.13-3.65t-6.12-8.34a6.66,6.66,0,0,1,2.35-5.26,8.22,8.22,0,0,1,5.57-2C731.37,636.36,733.63,637.6,734.87,640.07ZM743.65,592a17,17,0,0,0-9.15,3.28A8.52,8.52,0,0,0,731,602.6q.12,4.2,4.32,7.73a42.8,42.8,0,0,0,10.21,6.18q6,2.65,11.93,5.44a35.55,35.55,0,0,1,10.14,7,13.11,13.11,0,0,1,4.21,9.52,14.42,14.42,0,0,1-6,12.25q-6,4.44-17.25,4.94V655q14.1-2,14.1-11.75c0-2.72-1.41-5.21-4.21-7.48a47.08,47.08,0,0,0-10.2-6.12q-6-2.71-12-5.63a36.83,36.83,0,0,1-10.2-7.11,13,13,0,0,1-4.21-9.4,13.42,13.42,0,0,1,5.94-11.37q5.94-4.33,15.83-4.83Zm20.22,3.09q5.5,3.23,5.5,7.67a6.25,6.25,0,0,1-1.91,4.7,7.23,7.23,0,0,1-5.26,1.85c-3.54,0-5.73-1.31-6.55-3.95a5.7,5.7,0,0,0,3.89-1.55,4.39,4.39,0,0,0,1.3-3.52q0-2.85-3.34-5.38a15.83,15.83,0,0,0-8.66-2.91v-.62Q758.37,591.83,763.87,595.05Z"/></svg>